# Blender v2.80 (sub 75) OBJ File: 'TestObj.blend'
# www.blender.org
mtllib TestObj.mtl
o Cube_Cube.001
v -1.000000 -1.000000 1.000000
v -1.000000 1.000000 1.000000
v -1.000000 -1.000000 -1.000000
v -1.000000 1.000000 -1.000000
v 1.000000 -1.000000 1.000000
v 1.000000 1.000000 1.000000
v 1.000000 -1.000000 -1.000000
v 1.000000 1.000000 -1.000000
v 0.795386 -1.000000 -1.000000
v -0.795386 -1.000000 -1.000000
v -0.795386 1.000000 -1.000000
v 0.795386 1.000000 -1.000000
v -0.795386 -1.000000 1.000000
v 0.795386 -1.000000 1.000000
v 0.795386 1.000000 1.000000
v -0.795386 1.000000 1.000000
v 0.795386 -1.133442 -1.133442
v -0.795386 -1.133442 -1.133442
v -0.795386 1.133442 -1.133442
v 0.795386 1.133442 -1.133442
v -0.795386 -1.133442 1.133442
v 0.795386 -1.133442 1.133442
v 0.795386 1.133442 1.133442
v -0.795386 1.133442 1.133442
v 0.406660 -1.133442 -1.133442
v -0.406660 -1.133442 -1.133442
v -0.406660 1.133442 -1.482835
v 0.406660 1.133442 -1.482835
v -0.406660 -1.133442 1.133442
v 0.406660 -1.133442 1.133442
v 0.406660 1.133442 1.133442
v -0.406660 1.133442 1.133442
v -0.406660 -0.729066 2.055788
v 0.406660 -0.729066 2.055788
v 0.406660 0.729066 1.653708
v -0.406660 0.729066 1.653708
v -1.000000 0.294646 1.000000
v -1.000000 0.294646 -1.000000
v 1.000000 0.294646 -1.000000
v 1.000000 0.294646 1.000000
v 0.795386 0.294646 1.000000
v -0.795386 0.294646 1.000000
v -0.795386 0.294646 -1.000000
v 0.795386 0.294646 -1.000000
v 0.795386 0.333964 1.133442
v -0.795386 0.333964 1.133442
v -0.795386 0.333964 -1.133442
v 0.795386 0.333964 -1.133442
v -0.406660 0.333964 -1.482835
v 0.406660 0.333964 -1.482835
v 0.406660 0.333964 1.133442
v -0.406660 0.333964 1.133442
v 0.406660 0.214817 2.055788
v -0.406660 0.214817 2.055788
v -0.406660 1.133442 -1.996228
v 0.406660 1.133442 -1.996228
v -0.406660 0.730104 -1.996228
v 0.406660 0.730104 -1.996228
v 0.000000 -1.133442 -1.133442
v 0.000000 1.133442 -1.482835
v 0.000000 -1.133442 1.133442
v 0.000000 1.133442 1.133442
v 0.000000 -0.729066 2.055788
v 0.000000 0.729066 1.653708
v 0.000000 0.214817 2.055788
v 0.000000 0.333964 -1.482835
v 0.000000 1.133442 -1.996228
v 0.000000 0.730104 -1.996228
vt 0.185306 0.429190
vt 0.226218 0.232311
vt 0.250998 0.445303
vt 0.848108 0.257179
vt 0.793228 0.450274
vt 0.777065 0.238798
vt 0.636321 0.258149
vt 0.779997 0.195893
vt 0.775782 0.211667
vt 0.875329 0.234761
vt 0.883049 0.465399
vt 0.870618 0.454411
vt 0.120569 0.216144
vt 0.095908 0.525131
vt 0.073914 0.151444
vt 0.623923 0.249000
vt 0.573392 0.520946
vt 0.584362 0.216136
vt 0.245914 0.482226
vt 0.244616 0.538486
vt 0.936956 0.141973
vt 0.788263 0.109985
vt 0.649335 0.450915
vt 0.800249 0.485013
vt 0.795929 0.472615
vt 0.211683 0.100017
vt 0.220359 0.191915
vt 0.808436 0.538531
vt 0.447166 0.199850
vt 0.394998 0.457171
vt 0.391793 0.241328
vt 0.895019 0.219148
vt 0.932869 0.504783
vt 0.633624 0.464965
vt 0.438144 0.494214
vt 0.671521 0.430717
vt 0.653323 0.271666
vt 0.352933 0.271247
vt 0.366613 0.431189
vt 0.156019 0.245198
vt 0.854559 0.439735
vt 0.146859 0.464688
vt 0.161994 0.450244
vt 0.250314 0.469155
vt 0.136049 0.228387
vt 0.382894 0.446409
vt 0.375633 0.253446
vt 0.224265 0.206855
vt 0.964718 0.023068
vt 0.999878 0.120716
vt 0.391008 0.625373
vt 0.277693 0.659980
vt 0.505354 0.547508
vt 0.527391 0.179479
vt 0.031783 0.566107
vt 0.000121 0.140627
vt 0.136535 0.693154
vt 0.278612 0.736827
vt 0.628073 0.732089
vt 0.878167 0.606677
vt 0.797918 0.667970
vt 0.667728 0.657199
vt 0.434103 0.670240
vt 0.186602 0.620187
vt 0.760049 0.036750
vt 0.882177 0.064307
vt 0.884834 0.000121
vt 0.112113 0.072367
vt 0.922253 0.073461
vt 0.100813 0.000121
vt 0.233174 0.025231
vt 0.072405 0.081777
vt 0.505111 0.155440
vt 0.505111 0.511801
vt 0.999878 0.529697
vt 0.825893 0.739973
vt 0.028056 0.044019
vt 0.935154 0.653997
vn -1.0000 0.0000 0.0000
vn 1.0000 0.0000 0.0000
vn 0.0000 1.0000 0.0000
vn 0.0000 -1.0000 0.0000
vn 0.0000 0.0000 1.0000
vn 0.6685 0.0000 -0.7437
vn -0.6685 0.0000 -0.7437
vn 0.0000 0.0000 -1.0000
vn -0.6582 -0.1744 -0.7323
vn 0.6582 -0.1744 -0.7323
vn 0.0000 0.6160 0.7878
vn 0.0000 0.7896 0.6137
vn 0.0000 -0.9158 0.4015
vn 0.0000 -0.2316 -0.9728
vn 0.0000 -0.7917 -0.6109
usemtl MatBlue
s off
f 2/1/1 38/2/1 37/3/1
f 8/4/2 40/5/2 39/6/2
f 9/7/2 48/8/2 44/9/2
f 12/10/2 23/11/2 15/12/2
f 19/13/3 32/14/3 27/15/3
f 17/16/4 30/17/4 25/18/4
f 32/14/5 46/19/5 52/20/5
f 28/21/6 48/8/6 50/22/6
f 14/23/2 17/16/2 9/7/2
f 15/12/2 45/24/2 41/25/2
f 19/13/7 49/26/7 47/27/7
f 23/11/5 51/28/5 45/24/5
f 26/29/4 21/30/4 18/31/4
f 20/32/3 31/33/3 23/11/3
f 45/24/5 30/17/5 22/34/5
f 47/27/8 26/29/8 18/31/8
f 14/23/2 45/24/2 22/34/2
f 25/18/8 48/8/8 17/16/8
f 52/20/5 21/30/5 29/35/5
f 12/10/2 48/8/2 20/32/2
f 39/6/2 5/36/2 7/37/2
f 37/3/1 3/38/1 1/39/1
f 2/1/1 4/40/1 38/2/1
f 8/4/2 6/41/2 40/5/2
f 9/7/2 17/16/2 48/8/2
f 12/10/2 20/32/2 23/11/2
f 19/13/3 24/42/3 32/14/3
f 17/16/4 22/34/4 30/17/4
f 32/14/5 24/42/5 46/19/5
f 28/21/6 20/32/6 48/8/6
f 14/23/2 22/34/2 17/16/2
f 15/12/2 23/11/2 45/24/2
f 19/13/7 27/15/7 49/26/7
f 23/11/5 31/33/5 51/28/5
f 26/29/4 29/35/4 21/30/4
f 20/32/3 28/21/3 31/33/3
f 45/24/5 51/28/5 30/17/5
f 47/27/9 49/26/9 26/29/9
f 14/23/2 41/25/2 45/24/2
f 25/18/10 50/22/10 48/8/10
f 52/20/5 46/19/5 21/30/5
f 12/10/2 44/9/2 48/8/2
f 39/6/2 40/5/2 5/36/2
f 37/3/1 38/2/1 3/38/1
usemtl MatBlack
f 12/10/8 39/6/8 44/9/8
f 16/43/5 37/3/5 42/44/5
f 7/37/4 14/23/4 9/7/4
f 4/40/3 16/43/3 11/45/3
f 12/10/3 6/41/3 8/4/3
f 13/46/1 46/19/1 42/44/1
f 10/47/4 1/39/4 3/38/4
f 6/41/5 41/25/5 40/5/5
f 4/40/8 43/48/8 38/2/8
f 10/47/1 21/30/1 13/46/1
f 16/43/1 19/13/1 11/45/1
f 11/45/1 47/27/1 43/48/1
f 10/47/1 47/27/1 18/31/1
f 38/2/8 10/47/8 3/38/8
f 40/5/5 14/23/5 5/36/5
f 16/43/1 46/19/1 24/42/1
f 42/44/5 1/39/5 13/46/5
f 44/9/8 7/37/8 9/7/8
f 12/10/8 8/4/8 39/6/8
f 16/43/5 2/1/5 37/3/5
f 7/37/4 5/36/4 14/23/4
f 4/40/3 2/1/3 16/43/3
f 12/10/3 15/12/3 6/41/3
f 13/46/1 21/30/1 46/19/1
f 10/47/4 13/46/4 1/39/4
f 6/41/5 15/12/5 41/25/5
f 4/40/8 11/45/8 43/48/8
f 10/47/1 18/31/1 21/30/1
f 16/43/1 24/42/1 19/13/1
f 11/45/1 19/13/1 47/27/1
f 10/47/1 43/48/1 47/27/1
f 38/2/8 43/48/8 10/47/8
f 40/5/5 41/25/5 14/23/5
f 16/43/1 42/44/1 46/19/1
f 42/44/5 37/3/5 1/39/5
f 44/9/8 39/6/8 7/37/8
usemtl MatWhite
f 28/21/3 67/49/3 60/50/3
f 52/20/1 33/51/1 54/52/1
f 25/18/4 61/53/4 59/54/4
f 27/15/3 62/55/3 60/56/3
f 64/57/11 54/52/11 65/58/11
f 32/14/12 64/57/12 62/55/12
f 30/17/13 63/59/13 61/53/13
f 51/28/2 35/60/2 53/61/2
f 51/28/2 34/62/2 30/17/2
f 65/58/5 33/51/5 63/63/5
f 52/20/1 36/64/1 32/14/1
f 66/65/14 25/18/14 59/54/14
f 67/49/8 58/66/8 68/67/8
f 27/15/1 57/68/1 49/26/1
f 28/21/2 58/66/2 56/69/2
f 49/26/15 68/70/15 66/71/15
f 66/65/15 58/66/15 50/22/15
f 55/72/8 68/70/8 57/68/8
f 49/26/14 59/73/14 26/29/14
f 53/61/5 63/59/5 34/62/5
f 61/74/13 33/51/13 29/35/13
f 62/75/12 35/60/12 31/33/12
f 35/60/11 65/76/11 53/61/11
f 60/50/3 31/33/3 28/21/3
f 59/73/4 29/35/4 26/29/4
f 60/56/3 55/72/3 27/15/3
f 28/21/3 56/69/3 67/49/3
f 52/20/1 29/35/1 33/51/1
f 25/18/4 30/17/4 61/53/4
f 27/15/3 32/14/3 62/55/3
f 64/57/11 36/64/11 54/52/11
f 32/14/12 36/64/12 64/57/12
f 30/17/13 34/62/13 63/59/13
f 51/28/2 31/33/2 35/60/2
f 51/28/2 53/61/2 34/62/2
f 65/58/5 54/52/5 33/51/5
f 52/20/1 54/52/1 36/64/1
f 66/65/14 50/22/14 25/18/14
f 67/49/8 56/69/8 58/66/8
f 27/15/1 55/72/1 57/68/1
f 28/21/2 50/22/2 58/66/2
f 49/26/15 57/68/15 68/70/15
f 66/65/15 68/67/15 58/66/15
f 55/72/8 67/77/8 68/70/8
f 49/26/14 66/71/14 59/73/14
f 53/61/5 65/76/5 63/59/5
f 61/74/13 63/63/13 33/51/13
f 62/75/12 64/78/12 35/60/12
f 35/60/11 64/78/11 65/76/11
f 60/50/3 62/75/3 31/33/3
f 59/73/4 61/74/4 29/35/4
f 60/56/3 67/77/3 55/72/3
