{
    "asset" : {
        "generator" : "Khronos glTF Blender I/O v0.9.36",
        "version" : "2.0"
    },
    "scene" : 0,
    "scenes" : [
        {
            "name" : "Scene",
            "nodes" : [
                0
            ]
        }
    ],
    "nodes" : [
        {
            "mesh" : 0,
            "name" : "Cube"
        }
    ],
    "materials" : [
        {
            "doubleSided" : true,
            "name" : "MatBlue",
            "pbrMetallicRoughness" : {
                "baseColorFactor" : [
                    0.08236879855394363,
                    0.14834611117839813,
                    0.8000000715255737,
                    1
                ],
                "metallicFactor" : 0,
                "roughnessFactor" : 0.5
            }
        },
        {
            "doubleSided" : true,
            "name" : "MatBlack",
            "pbrMetallicRoughness" : {
                "baseColorFactor" : [
                    0.12977170944213867,
                    0.12977170944213867,
                    0.12977170944213867,
                    1
                ],
                "metallicFactor" : 0,
                "roughnessFactor" : 0.5
            }
        },
        {
            "doubleSided" : true,
            "name" : "MatWhite",
            "pbrMetallicRoughness" : {
                "baseColorFactor" : [
                    0.800000011920929,
                    0.800000011920929,
                    0.800000011920929,
                    1
                ],
                "metallicFactor" : 0,
                "roughnessFactor" : 0.5
            }
        }
    ],
    "meshes" : [
        {
            "name" : "Cube.001",
            "primitives" : [
                {
                    "attributes" : {
                        "POSITION" : 0,
                        "NORMAL" : 1,
                        "TEXCOORD_0" : 2
                    },
                    "indices" : 3,
                    "material" : 0
                },
                {
                    "attributes" : {
                        "POSITION" : 4,
                        "NORMAL" : 5,
                        "TEXCOORD_0" : 6
                    },
                    "indices" : 7,
                    "material" : 1
                },
                {
                    "attributes" : {
                        "POSITION" : 8,
                        "NORMAL" : 9,
                        "TEXCOORD_0" : 10
                    },
                    "indices" : 11,
                    "material" : 2
                }
            ]
        }
    ],
    "accessors" : [
        {
            "bufferView" : 0,
            "componentType" : 5126,
            "count" : 88,
            "max" : [
                1,
                1.1334418058395386,
                1.1334418058395386
            ],
            "min" : [
                -1,
                -1.1334418058395386,
                -1.4828354120254517
            ],
            "type" : "VEC3"
        },
        {
            "bufferView" : 1,
            "componentType" : 5126,
            "count" : 88,
            "type" : "VEC3"
        },
        {
            "bufferView" : 2,
            "componentType" : 5126,
            "count" : 88,
            "type" : "VEC2"
        },
        {
            "bufferView" : 3,
            "componentType" : 5123,
            "count" : 132,
            "type" : "SCALAR"
        },
        {
            "bufferView" : 4,
            "componentType" : 5126,
            "count" : 72,
            "max" : [
                1,
                1.1334418058395386,
                1.1334418058395386
            ],
            "min" : [
                -1,
                -1.1334418058395386,
                -1.1334418058395386
            ],
            "type" : "VEC3"
        },
        {
            "bufferView" : 5,
            "componentType" : 5126,
            "count" : 72,
            "type" : "VEC3"
        },
        {
            "bufferView" : 6,
            "componentType" : 5126,
            "count" : 72,
            "type" : "VEC2"
        },
        {
            "bufferView" : 7,
            "componentType" : 5123,
            "count" : 108,
            "type" : "SCALAR"
        },
        {
            "bufferView" : 8,
            "componentType" : 5126,
            "count" : 104,
            "max" : [
                0.40665996074676514,
                1.1334418058395386,
                2.0557878017425537
            ],
            "min" : [
                -0.40665996074676514,
                -1.1334418058395386,
                -1.9962283372879028
            ],
            "type" : "VEC3"
        },
        {
            "bufferView" : 9,
            "componentType" : 5126,
            "count" : 104,
            "type" : "VEC3"
        },
        {
            "bufferView" : 10,
            "componentType" : 5126,
            "count" : 104,
            "type" : "VEC2"
        },
        {
            "bufferView" : 11,
            "componentType" : 5123,
            "count" : 156,
            "type" : "SCALAR"
        }
    ],
    "bufferViews" : [
        {
            "buffer" : 0,
            "byteLength" : 1056,
            "byteOffset" : 0
        },
        {
            "buffer" : 0,
            "byteLength" : 1056,
            "byteOffset" : 1056
        },
        {
            "buffer" : 0,
            "byteLength" : 704,
            "byteOffset" : 2112
        },
        {
            "buffer" : 0,
            "byteLength" : 264,
            "byteOffset" : 2816
        },
        {
            "buffer" : 0,
            "byteLength" : 864,
            "byteOffset" : 3080
        },
        {
            "buffer" : 0,
            "byteLength" : 864,
            "byteOffset" : 3944
        },
        {
            "buffer" : 0,
            "byteLength" : 576,
            "byteOffset" : 4808
        },
        {
            "buffer" : 0,
            "byteLength" : 216,
            "byteOffset" : 5384
        },
        {
            "buffer" : 0,
            "byteLength" : 1248,
            "byteOffset" : 5600
        },
        {
            "buffer" : 0,
            "byteLength" : 1248,
            "byteOffset" : 6848
        },
        {
            "buffer" : 0,
            "byteLength" : 832,
            "byteOffset" : 8096
        },
        {
            "buffer" : 0,
            "byteLength" : 312,
            "byteOffset" : 8928
        }
    ],
    "buffers" : [
        {
            "byteLength" : 9240,
            "uri" : "data:application/octet-stream;base64,"
        }
    ]
}
